<?xml version="1.0" encoding="utf-8"?>
<!-- Generator: Adobe Illustrator 26.0.2, SVG Export Plug-In . SVG Version: 6.00 Build 0)  -->
<svg version="1.1" xmlns="http://www.w3.org/2000/svg" xmlns:xlink="http://www.w3.org/1999/xlink" x="0px" y="0px"
	 viewBox="0 0 3710 3710" style="enable-background:new 0 0 3710 3710;" xml:space="preserve">
<style type="text/css">
	.st0{display:none;}
	.st1{display:inline;}
	.st2{fill:#FFFFFF;}
	.st3{fill:url(#SVGID_1_);}
	.st4{fill:#91B3FA;}
	.st5{fill:url(#SVGID_00000147919534629475524650000012511049933503859086_);}
	.st6{fill:url(#SVGID_00000075851775379206722550000014520358350827504768_);}
	.st7{fill:url(#SVGID_00000137114180622781903320000016154586061515228055_);}
	.st8{fill:url(#SVGID_00000019650460747080103920000007624094827333346693_);}
	.st9{fill:url(#SVGID_00000180328531815809515750000017641025412310335411_);}
	.st10{fill:url(#SVGID_00000091726557612041961800000009580421073893917089_);}
	.st11{fill:url(#SVGID_00000059286628048346464830000013680862990299099060_);}
	.st12{fill:url(#SVGID_00000115479655173920317960000001444081369534740670_);}
	.st13{fill:url(#SVGID_00000029008506692109193510000016368273777267841210_);}
	.st14{fill:url(#SVGID_00000109708134524622204800000002935651465692519327_);}
	.st15{fill:url(#SVGID_00000042699991139163038920000005883984314163981486_);}
	.st16{fill:url(#SVGID_00000048484542865992928910000013295674172278297531_);}
	.st17{fill:url(#SVGID_00000074418179460302145990000006817336270169409930_);}
	.st18{fill:url(#SVGID_00000065784037863251990620000017693853595035058873_);}
	.st19{fill:url(#SVGID_00000061451728819438151720000000421197099135215262_);}
	.st20{fill:url(#SVGID_00000108284815453694905220000001727895779491848105_);}
	.st21{fill:url(#SVGID_00000040544683853555910300000002783487982651429046_);}
	.st22{fill:url(#SVGID_00000041978917619530554120000012360917716642973605_);}
	.st23{fill:url(#SVGID_00000150064896251917263550000014287896073250335409_);}
	.st24{fill:url(#SVGID_00000016779581440796488190000002199157300971324557_);}
	.st25{fill:url(#SVGID_00000182522701712466403750000015462764985122940072_);}
	.st26{fill:url(#SVGID_00000157276044355096730930000013548113415854702770_);}
	.st27{fill:url(#SVGID_00000102526608611763976060000007866136756343071635_);}
	.st28{fill:url(#SVGID_00000011008417224262594330000012214543116627647924_);}
	.st29{fill:#7D97F4;}
	.st30{fill:url(#SVGID_00000062180916313884981710000011369032756111562657_);}
</style>
<g id="Background" class="st0">
	<g class="st1">
		<g>
			<rect class="st2" width="3710" height="3710"/>
		</g>
	</g>
</g>
<g id="Illustration">
	<g>
		<linearGradient id="SVGID_1_" gradientUnits="userSpaceOnUse" x1="3470.8799" y1="3790.8635" x2="1011.3632" y2="736.2982">
			<stop  offset="0" style="stop-color:#DAE3FE"/>
			<stop  offset="1" style="stop-color:#E9EFFD"/>
		</linearGradient>
		<path class="st3" d="M2802.56,2580.48c-56.95,59.16-110.83,97.31-153.41,127.45c-500.44,354.32-1092.6,251.04-1218.45,225.81
			c-185.84-37.25-545.07-109.24-804.78-410.61c-392.93-455.95-331.74-1174.3-26.96-1648.48c55.75-86.74,350.23-568.15,948.77-645.35
			c362.23-46.72,784.47,47.51,1090.25,300.3C3279.82,1060.22,3234.12,2132.17,2802.56,2580.48z"/>
		<g>
			<path class="st2" d="M2507.28,1215.71c-0.03,0-0.07,0-0.1,0l-20.04-0.28c-3.69-0.05-6.64-3.08-6.59-6.77
				c0.05-3.69,2.96-6.54,6.77-6.59l20.04,0.28c3.69,0.05,6.64,3.08,6.59,6.77C2513.91,1212.78,2510.92,1215.71,2507.28,1215.71z"/>
			<path class="st2" d="M2448.12,1214.89c-0.03,0-0.07,0-0.1,0l-39.12-0.55c-3.69-0.05-6.64-3.08-6.59-6.77
				c0.05-3.66,3.03-6.59,6.68-6.59c0.03,0,0.07,0,0.1,0l39.12,0.55c3.69,0.05,6.64,3.08,6.59,6.77
				C2454.74,1211.96,2451.76,1214.89,2448.12,1214.89z M2369.88,1213.79c-0.03,0-0.07,0-0.1,0l-39.12-0.55
				c-3.69-0.05-6.64-3.09-6.59-6.77c0.05-3.69,3.22-6.56,6.77-6.59l39.12,0.55c3.69,0.05,6.64,3.09,6.59,6.77
				C2376.5,1210.86,2373.52,1213.79,2369.88,1213.79z M2291.63,1212.69c-0.03,0-0.07,0-0.1,0l-39.12-0.55
				c-3.69-0.05-6.64-3.08-6.59-6.77c0.06-3.69,3.16-6.56,6.77-6.59l39.12,0.55c3.69,0.05,6.64,3.08,6.59,6.77
				C2298.26,1209.76,2295.28,1212.69,2291.63,1212.69z"/>
			<path class="st2" d="M2213.39,1211.59c-0.03,0-0.07,0-0.1,0l-20.04-0.28c-3.69-0.05-6.64-3.08-6.59-6.77
				c0.06-3.69,3.14-6.65,6.77-6.59l20.04,0.28c3.69,0.05,6.64,3.08,6.59,6.77C2220.02,1208.67,2217.04,1211.59,2213.39,1211.59z"/>
		</g>
		<g>
			<g>
				<path class="st4" d="M667.18,1072.08c-0.06,9.36-7.7,16.91-17.07,16.84c-9.36-0.06-16.9-7.7-16.84-17.07
					c0.06-9.36,7.7-16.9,17.07-16.84C659.7,1055.08,667.25,1062.72,667.18,1072.08z"/>
				<path class="st4" d="M666.62,1072.08c-0.06,9.05-7.45,16.34-16.5,16.28c-9.05-0.06-16.34-7.45-16.28-16.5
					c0.06-9.05,7.45-16.34,16.5-16.28C659.39,1055.64,666.68,1063.03,666.62,1072.08z"/>
			</g>
			<g>
				<path class="st4" d="M667.18,1174.87c-0.06,9.36-7.7,16.91-17.07,16.84s-16.9-7.7-16.84-17.07c0.06-9.36,7.7-16.91,17.07-16.84
					C659.7,1157.86,667.25,1165.51,667.18,1174.87z"/>
				<path class="st4" d="M666.62,1174.87c-0.06,9.05-7.45,16.34-16.5,16.28c-9.05-0.06-16.34-7.45-16.28-16.5
					c0.06-9.05,7.45-16.34,16.5-16.28C659.39,1158.43,666.68,1165.81,666.62,1174.87z"/>
			</g>
			<g>
				<path class="st4" d="M667.18,1277.66c-0.06,9.36-7.7,16.91-17.07,16.84c-9.36-0.06-16.9-7.7-16.84-17.07
					c0.06-9.36,7.7-16.91,17.07-16.84C659.7,1260.65,667.25,1268.29,667.18,1277.66z"/>
				<path class="st4" d="M666.62,1277.65c-0.06,9.05-7.45,16.34-16.5,16.28c-9.05-0.06-16.34-7.45-16.28-16.5
					c0.06-9.05,7.45-16.34,16.5-16.28C659.39,1261.21,666.68,1268.6,666.62,1277.65z"/>
			</g>
			<path class="st2" d="M693.27,1071.2l0.08,2.89c0.21,7.82,5.09,14.02,11.06,14.05l454.12,0.69c6.16,0.03,11.17-6.51,11.16-14.59
				l0,0c-0.01-7.92-4.85-14.38-10.89-14.54l-454.2-3.58C698.22,1055.95,693.04,1062.84,693.27,1071.2z"/>
			<path class="st2" d="M693.27,1173.49l0.08,2.89c0.21,7.82,5.09,14.02,11.06,14.05l454.12,0.69c6.16,0.03,11.17-6.51,11.16-14.59
				l0,0c-0.01-7.92-4.85-14.38-10.89-14.54l-454.2-3.58C698.22,1158.24,693.04,1165.13,693.27,1173.49z"/>
			<path class="st2" d="M693.27,1275.77l0.08,2.89c0.21,7.82,5.09,14.02,11.06,14.05l454.12,0.69c6.16,0.03,11.17-6.51,11.16-14.59
				l0,0c-0.01-7.92-4.85-14.38-10.89-14.54l-454.2-3.58C698.22,1260.52,693.04,1267.41,693.27,1275.77z"/>
		</g>
		<g>
			<g>
				
					<linearGradient id="SVGID_00000028314592411029804560000017042054019094090388_" gradientUnits="userSpaceOnUse" x1="1840.2194" y1="1756.4276" x2="1707.3357" y2="3289.0339">
					<stop  offset="0" style="stop-color:#4F52FF"/>
					<stop  offset="1" style="stop-color:#4042E2"/>
				</linearGradient>
				<path style="fill:url(#SVGID_00000028314592411029804560000017042054019094090388_);" d="M2903.14,2246.86
					c-20.43-62.5-56.4-118.06-103.54-163.09c-59.61-56.94-137.09-97.04-223.6-113.01c0,0-112.28-19.41-235.47-51.14
					c-40.25-10.37-83.32-1.68-115.6,23.12c-86.07,66.13-247.68,152.23-501.55,146.42c-229.97-5.26-362.14-74.09-433.79-133.34
					c-33.34-27.57-79.27-37.38-121.94-25.67c-92.75,25.44-169.9,40.61-169.9,40.61c-154.91,28.61-351.87,134.56-398.14,276.1
					c-44.33,135.61-89.57,358.92-94.4,545.8c-1.75,67.95,56.17,124.04,128.66,124.04h2235.01c72.49,0,130.41-56.09,128.66-124.04
					C2992.71,2605.77,2947.47,2382.46,2903.14,2246.86z"/>
				
					<linearGradient id="SVGID_00000165932227138799480770000002517882474917857163_" gradientUnits="userSpaceOnUse" x1="1757.2809" y1="2226.8809" x2="1722.2135" y2="1445.3667">
					<stop  offset="0" style="stop-color:#FEBBBA"/>
					<stop  offset="1" style="stop-color:#FF928E"/>
				</linearGradient>
				<path style="fill:url(#SVGID_00000165932227138799480770000002517882474917857163_);" d="M1723.38,2100.73
					c313.03,7.64,532.5-117.97,596.32-184.72c-126.91-39.32-292.66-106.8-294.64-162.75l-19.11-538.96h-504.16l-19.11,538.96
					c-2.12,59.72-195.33,137.72-315.03,177.88C1218.83,1996.53,1426.69,2093.49,1723.38,2100.73z"/>
			</g>
			<g>
				
					<linearGradient id="SVGID_00000022540040118072745530000003621470888216721062_" gradientUnits="userSpaceOnUse" x1="1715.5564" y1="1589.5625" x2="1725.5765" y2="161.792">
					<stop  offset="0" style="stop-color:#FEBBBA"/>
					<stop  offset="1" style="stop-color:#FF928E"/>
				</linearGradient>
				<path style="fill:url(#SVGID_00000022540040118072745530000003621470888216721062_);" d="M1311.69,736.34
					c0,0,72.55,785.91,284.43,870.38c0,0,171.93,74.05,315.55-9.73c0,0,236.89-215.59,219.86-854.66c0,0,19.61-370.29-388.97-400.94
					C1263.82,305.48,1311.69,736.34,1311.69,736.34z"/>
				
					<linearGradient id="SVGID_00000111881409249135567250000000939060519486706100_" gradientUnits="userSpaceOnUse" x1="2144.2744" y1="1592.571" x2="2154.2947" y2="164.8029">
					<stop  offset="0" style="stop-color:#FEBBBA"/>
					<stop  offset="1" style="stop-color:#FF928E"/>
				</linearGradient>
				<path style="fill:url(#SVGID_00000111881409249135567250000000939060519486706100_);" d="M2089.64,1012.66
					c0,0,35.91-107.72,95.74-107.72c59.84,0-11.97,287.24-95.74,287.24V1012.66z"/>
				
					<linearGradient id="SVGID_00000127030710223915386590000012929404575784656542_" gradientUnits="userSpaceOnUse" x1="1322.5067" y1="1586.8048" x2="1332.527" y2="159.0382">
					<stop  offset="0" style="stop-color:#FEBBBA"/>
					<stop  offset="1" style="stop-color:#FF928E"/>
				</linearGradient>
				<path style="fill:url(#SVGID_00000127030710223915386590000012929404575784656542_);" d="M1390.37,988.09
					c0,0-49.37-91.22-108.67-83.15c-59.29,8.07,25.65,298.04,108.67,286.75V988.09z"/>
				
					<linearGradient id="SVGID_00000036225013783601063260000009799401174550066099_" gradientUnits="userSpaceOnUse" x1="2184.4338" y1="1322.7008" x2="1488.2476" y2="269.4964">
					<stop  offset="0" style="stop-color:#09005D"/>
					<stop  offset="1" style="stop-color:#1A0F91"/>
				</linearGradient>
				<path style="fill:url(#SVGID_00000036225013783601063260000009799401174550066099_);" d="M1377,935.31
					c-22.99,10.2-49.8-1.18-58.38-24.82c-15.1-41.58-38.29-104.78-57.08-153.08c-30.58-78.64-192.24-179.13-21.85-375.74
					c170.39-196.61,266.89,16.78,380.3-39.67c113.41-56.45,248.85-187.52,366.81-104.51s39.32,161.65,78.64,183.5
					c39.32,21.85,100.49-91.75,144.18,61.17c33.8,118.31-21.26,336.13-47.91,428.65c-6.47,22.47-32.04,33.19-52.61,22.06h0
					c-10.85-5.87-18.01-16.78-19.06-29.08c-2.95-34.86-9.89-112.1-20.23-198.81c-14.07-117.99-121.76,45.48-331.76,68.62
					c-210,23.13-192.52-90.46-293.01-90.46c-42.39,0-43.68,147.88-42.26,211.62C1403.17,912.23,1392.98,928.21,1377,935.31
					L1377,935.31z"/>
				<path class="st4" d="M1315.02,825.51c-0.04,0.01,0.54-0.35,1.23-0.97c0.53-0.48,1.44-1.59,2.05-3.23
					c1.25-3.36,1.05-9.35-1.51-16.5c-2.35-7.59-5.37-16.37-9.9-26.19c-4.35-9.89-10.1-20.69-16.85-32.22
					c-6.66-11.58-14.33-23.92-22.48-37.04c-8.12-13.14-16.66-27.13-24.5-42.31c-7.81-15.09-14.94-31.76-19.27-49.19
					c-4.48-17.91-6.62-36.21-6.3-54.74c0.49-18.47,3.33-36.85,8.32-54.35c4.92-17.53,12.46-33.98,21.46-48.8
					c8.89-14.73,19.86-27.88,31.21-38.85c11.37-11.07,23.54-19.94,35.28-27.12c11.79-7.14,23.3-12.4,33.7-16.38
					c2.63-0.92,5.18-1.81,7.63-2.67c2.47-0.82,4.9-1.45,7.2-2.14c4.59-1.44,8.94-2.29,12.81-3.22c7.8-1.63,13.98-2.6,18.23-2.92
					c4.23-0.43,6.48-0.65,6.48-0.65c0.92-0.09,1.74,0.58,1.83,1.49c0.09,0.86-0.49,1.63-1.32,1.8l-0.1,0.02c0,0-2.18,0.45-6.27,1.29
					c-2.04,0.42-4.56,0.88-7.47,1.71c-2.91,0.8-6.31,1.44-10,2.66c-3.69,1.19-7.82,2.32-12.15,4.06c-2.18,0.84-4.47,1.62-6.78,2.59
					c-2.3,1.01-4.68,2.05-7.14,3.13c-9.77,4.43-20.48,10.11-31.41,17.42c-10.98,7.24-22.03,16.3-32.59,26.94
					c-10.58,10.72-20.23,23.05-28.73,37.12c-8.34,13.99-15.25,29.5-20.03,45.95c-4.78,16.46-7.55,33.79-8.09,51.21
					c-0.39,17.35,1.35,35.02,5.23,51.44c0.97,4.09,2.33,8.64,3.42,12.48c1.41,4.02,2.7,8.06,4.19,12.02
					c1.62,3.91,3.04,7.87,4.74,11.71c1.75,3.81,3.36,7.65,5.2,11.37c7.19,14.94,15.23,28.97,22.96,42.29
					c7.74,13.31,15.19,25.93,21.54,37.91c6.31,12,11.69,23.28,15.69,33.61c4.18,10.25,6.95,19.69,8.9,27.2
					c2.28,7.76,2.31,14.76,0.36,19.25c-1,2.25-2.26,3.67-3.4,4.57c-0.99,0.76-1.4,0.95-1.42,0.99c-0.76,0.53-1.8,0.35-2.33-0.41
					C1314.08,827.08,1314.26,826.04,1315.02,825.51z"/>
				<path class="st4" d="M1336.42,833.89c-0.1,0-0.21-0.01-0.32-0.03c-0.91-0.17-1.5-1.05-1.33-1.95
					c9.07-47.51-14.49-93.09-37.27-137.18c-22.08-42.73-44.92-86.92-39.24-133.8c7.97-65.79,69.07-110.91,114.34-139.12
					c0.78-0.48,1.81-0.25,2.3,0.53c0.49,0.78,0.25,1.81-0.53,2.3c-44.69,27.85-104.99,72.31-112.79,136.68
					c-5.55,45.87,17.04,89.59,38.89,131.87c23.04,44.59,46.87,90.69,37.58,139.34C1337.91,833.33,1337.21,833.89,1336.42,833.89z"/>
				<path class="st4" d="M1643.02,664.38c0,0,0.21,0.59,0.62,1.74c0.45,1.11,0.94,2.94,1.91,4.98c1.79,4.07,5.11,10.04,10.81,16.36
					c2.78,3.23,6.38,6.33,10.43,9.47c4.21,2.94,8.87,6.02,14.33,8.41c10.73,5.03,24.11,8.37,38.55,8.28
					c14.74,0,30.47-3.28,46.32-9.29c15.85-5.99,31.8-14.5,47.71-24.29c8.1-4.92,16.1-10,24.2-15.22
					c8.09-5.31,16.24-10.74,24.41-16.32c16.36-11.13,32.92-22.63,49.86-33.7c16.95-11.04,34.26-21.7,52.11-30.89
					c17.85-9.14,36.16-16.97,54.64-22.37c4.57-1.48,9.27-2.42,13.83-3.64c4.6-1.23,9.1-2.13,13.79-2.92
					c9.22-1.49,18.47-2.32,27.54-1.74c9.05,0.52,17.94,2.39,25.93,5.83c1,0.41,2,0.84,2.96,1.35l1.45,0.73l0.72,0.36l0.36,0.18
					l0.18,0.09l0.37,0.22c1.7,1.06,3.38,2.12,5.04,3.16c1.66,0.99,3.37,2.56,5.01,3.81c1.72,1.28,3.15,2.71,4.54,4.15
					c2.95,2.74,5.25,5.9,7.62,8.87c2.07,3.17,4.19,6.21,5.77,9.43c1.8,3.11,3.07,6.34,4.46,9.41c1.16,3.15,2.32,6.2,3.21,9.21
					c3.64,12.04,5.31,22.78,6.43,31.6c1.14,8.82,1.49,15.78,1.79,20.51c0.23,4.73,0.35,7.26,0.35,7.26c0.05,0.92-0.67,1.7-1.59,1.75
					c-0.88,0.04-1.64-0.61-1.74-1.48l0-0.03c0,0-0.28-2.49-0.8-7.17c-0.6-4.66-1.4-11.51-2.88-20.11
					c-1.5-8.58-3.65-18.99-7.66-30.28c-2.08-5.6-4.5-11.49-7.84-17.18c-1.54-2.94-3.56-5.63-5.51-8.46
					c-2.21-2.6-4.35-5.39-7.04-7.72c-1.27-1.25-2.57-2.48-3.99-3.45c-1.46-1.02-2.6-2.17-4.35-3.15c-1.69-0.99-3.4-2-5.13-3.01
					l-2.33-1.08c-0.84-0.42-1.72-0.76-2.61-1.1c-7.05-2.79-14.94-4.24-23.15-4.48c-8.22-0.31-16.79,0.5-25.46,2.06
					c-4.26,0.78-8.76,1.74-13.1,2.98c-4.37,1.24-8.87,2.2-13.25,3.7c-17.74,5.34-35.44,12.96-52.81,21.98
					c-17.4,8.97-34.55,19.23-51.39,30.09c-16.85,10.84-33.45,22.2-49.94,33.25c-8.24,5.54-16.48,10.95-24.68,16.25
					c-8.27,5.25-16.48,10.44-24.64,15.1c-16.42,9.65-32.99,18.07-49.66,23.98c-16.61,5.93-33.49,9.09-48.99,8.77
					c-15.8-0.32-29.79-4.47-41.06-10.18c-5.71-2.75-10.59-6.18-14.95-9.47c-4.22-3.49-7.93-6.93-10.79-10.48
					c-5.85-7.01-9.03-13.48-10.82-18.11c-0.94-2.27-1.3-3.99-1.71-5.16c-0.36-1.17-0.54-1.77-0.54-1.77
					c-0.27-0.88,0.22-1.82,1.1-2.09C1641.81,663.09,1642.72,663.55,1643.02,664.38z"/>
			</g>
			<path class="st2" d="M1605.17,1366.7c89.2,117.09,176.77,101.79,289.85,0C1803.79,1385.68,1696.4,1391.71,1605.17,1366.7z"/>
			
				<linearGradient id="SVGID_00000081646016058515194980000003190219542853961095_" gradientUnits="userSpaceOnUse" x1="1941.3284" y1="965.4692" x2="1950.6862" y2="872.9304">
				<stop  offset="0" style="stop-color:#09005D"/>
				<stop  offset="1" style="stop-color:#1A0F91"/>
			</linearGradient>
			<path style="fill:url(#SVGID_00000081646016058515194980000003190219542853961095_);" d="M1812.8,932.71L1812.8,932.71
				c0,9.54,9.32,16.33,18.37,13.32c43.88-14.59,157.5-44.04,243.36,6.69c0,0-47.99-110.37-252.75-33.1
				C1816.36,921.67,1812.8,926.91,1812.8,932.71z"/>
			
				<linearGradient id="SVGID_00000181049460925091754540000000555208947470398895_" gradientUnits="userSpaceOnUse" x1="600.0848" y1="965.4692" x2="609.4426" y2="872.9304" gradientTransform="matrix(-1 0 0 1 2137 0)">
				<stop  offset="0" style="stop-color:#09005D"/>
				<stop  offset="1" style="stop-color:#1A0F91"/>
			</linearGradient>
			<path style="fill:url(#SVGID_00000181049460925091754540000000555208947470398895_);" d="M1665.45,932.71L1665.45,932.71
				c0,9.54-9.32,16.33-18.37,13.32c-43.88-14.59-157.5-44.04-243.36,6.69c0,0,47.99-110.37,252.75-33.1
				C1661.88,921.67,1665.45,926.91,1665.45,932.71z"/>
		</g>
		<g>
			<g>
				<path class="st2" d="M1323.38,771.11c-9.22,0-16.7-7.48-16.7-16.7V633.82c0-32.06,26.08-58.15,58.15-58.15h83.46
					c9.22,0,16.7,7.48,16.7,16.7c0,9.22-7.48,16.7-16.7,16.7h-83.46c-13.64,0-24.75,11.1-24.75,24.75v120.59
					C1340.08,763.63,1332.61,771.11,1323.38,771.11z"/>
				<path class="st2" d="M2132.44,771.11c-9.22,0-16.7-7.48-16.7-16.7V633.82c0-13.65-11.1-24.75-24.75-24.75h-83.46
					c-9.22,0-16.7-7.48-16.7-16.7c0-9.22,7.48-16.7,16.7-16.7H2091c32.06,0,58.15,26.08,58.15,58.15v120.59
					C2149.14,763.63,2141.67,771.11,2132.44,771.11z"/>
			</g>
			<g>
				<path class="st2" d="M1448.29,1725.33h-83.46c-32.06,0-58.15-26.08-58.15-58.15v-120.59c0-9.22,7.48-16.7,16.7-16.7
					s16.7,7.48,16.7,16.7v120.59c0,13.65,11.1,24.75,24.75,24.75h83.46c9.22,0,16.7,7.48,16.7,16.7S1457.51,1725.33,1448.29,1725.33
					z"/>
				<path class="st2" d="M2091,1725.33h-83.46c-9.22,0-16.7-7.48-16.7-16.7s7.48-16.7,16.7-16.7H2091
					c13.64,0,24.75-11.1,24.75-24.75v-120.59c0-9.22,7.48-16.7,16.7-16.7s16.7,7.48,16.7,16.7v120.59
					C2149.14,1699.24,2123.06,1725.33,2091,1725.33z"/>
			</g>
			<path class="st2" d="M2068.96,1669.61h-683.21c-13.49,0-24.47-10.98-24.47-24.47V652.86c0-13.49,10.98-24.47,24.47-24.47h683.21
				c13.49,0,24.47,10.98,24.47,24.47v992.28C2093.42,1658.63,2082.45,1669.61,2068.96,1669.61z M1385.75,638.41
				c-7.97,0-14.45,6.48-14.45,14.45v992.28c0,7.97,6.48,14.45,14.45,14.45h683.21c7.97,0,14.45-6.48,14.45-14.45V652.86
				c0-7.97-6.48-14.45-14.45-14.45H1385.75z"/>
		</g>
		<g>
			<g>
				
					<linearGradient id="SVGID_00000168092379119795170600000006308580512817173170_" gradientUnits="userSpaceOnUse" x1="-2010.5526" y1="1489.1598" x2="-1919.6044" y2="1717.3015" gradientTransform="matrix(-1 0 0 1 -1165.4333 0)">
					<stop  offset="0" style="stop-color:#09005D"/>
					<stop  offset="1" style="stop-color:#1A0F91"/>
				</linearGradient>
				<path style="fill:url(#SVGID_00000168092379119795170600000006308580512817173170_);" d="M791.19,1611.88
					c0,0-30.66,14.91-36.3,32.05c-4.52,13.75-38.43,15.52-41.78,42.55c-1.73,13.96-12.06,25.14-25.96,27.27
					c-34.63,5.31-87.99,23.29-96.53,83.41c-6.52,45.89,16.88,63.29,41.43,69.31c18.03,4.42,30.01,21.96,26.37,40.17
					c-3.5,17.46,1.72,37.65,31.97,53.61c67.79,35.77,135.48-84.74,135.48-84.74l13.87-210.41L791.19,1611.88z"/>
				
					<linearGradient id="SVGID_00000088850996752759859590000000371738265511848376_" gradientUnits="userSpaceOnUse" x1="-2303.7859" y1="1320.9667" x2="-2135.7668" y2="1703.248" gradientTransform="matrix(-0.9776 -0.2106 -0.2106 0.9776 -915.0133 -113.5247)">
					<stop  offset="0" style="stop-color:#FEBBBA"/>
					<stop  offset="1" style="stop-color:#FF928E"/>
				</linearGradient>
				<path style="fill:url(#SVGID_00000088850996752759859590000000371738265511848376_);" d="M1160.04,1562
					c0,0-135.35,214.08-296.29,255.43c0,0,31.36,89.32,55.57,99.54c0,0,198-165.21,248.89-324.55L1160.04,1562z"/>
				
					<linearGradient id="SVGID_00000118393035171414866880000010362165481921954216_" gradientUnits="userSpaceOnUse" x1="-1574.6899" y1="1898.7618" x2="-1624.7872" y2="2710.3369" gradientTransform="matrix(-1 0 0 1 -1165.4333 0)">
					<stop  offset="0" style="stop-color:#09005D"/>
					<stop  offset="1" style="stop-color:#1A0F91"/>
				</linearGradient>
				<path style="fill:url(#SVGID_00000118393035171414866880000010362165481921954216_);" d="M512.56,2931.25l-4.39,36.06
					c-0.83,6.84-6.22,12.25-13.07,13.03c-11.56,1.32-30.11,2.67-48.26,0.76c-7.97-0.84-13.14-8.91-10.71-16.54
					c4.42-13.92,12.52-34.82,24.19-47.12h40C507.72,2917.44,513.45,2923.91,512.56,2931.25z"/>
				
					<linearGradient id="SVGID_00000044870258578896841610000005173166857731879839_" gradientUnits="userSpaceOnUse" x1="-2003.9592" y1="3253.8674" x2="-1892.9772" y2="1956.7635" gradientTransform="matrix(-1 0 0 1 -1165.4333 0)">
					<stop  offset="0" style="stop-color:#FEBBBA"/>
					<stop  offset="1" style="stop-color:#FF928E"/>
				</linearGradient>
				<path style="fill:url(#SVGID_00000044870258578896841610000005173166857731879839_);" d="M825.88,2508.82l6.75,39.72
					c0,0-22.61,229.03-26.63,320.64c-0.63,14.36,3.09,28.56,10.62,40.8l39.32,63.85l-99.92-58.96l-1.99-12.19l16.36-22.49
					l-21.43-256.57c-1.26-15.07,1.85-30.19,8.96-43.54l20.67-38.83L825.88,2508.82z"/>
				
					<linearGradient id="SVGID_00000105384668972567773730000012160705004526287787_" gradientUnits="userSpaceOnUse" x1="-1908.0021" y1="1878.1927" x2="-1958.0991" y2="2689.7654" gradientTransform="matrix(-1 0 0 1 -1165.4333 0)">
					<stop  offset="0" style="stop-color:#09005D"/>
					<stop  offset="1" style="stop-color:#1A0F91"/>
				</linearGradient>
				<path style="fill:url(#SVGID_00000105384668972567773730000012160705004526287787_);" d="M862.52,2983.07h-31.89
					c-5.97,0-11.6-2.74-15.24-7.47c-9.94-12.92-30.54-38.12-40.38-38.77c-13.26-0.89-11.56,46.24-11.56,46.24h-7.43l-9.41-58.57
					c-2.37-14.74,4.96-29.33,18.19-36.24c0,0,3.03,22.41,19.46,32.32c16.43,9.91,66.87,45.42,66.87,45.42s6.18-0.88,12.96,0.34
					C874.14,2968.17,872.74,2983.07,862.52,2983.07z"/>
				
					<linearGradient id="SVGID_00000150070628999801924660000011641649964053530017_" gradientUnits="userSpaceOnUse" x1="-1780.7119" y1="3273.1677" x2="-1669.7007" y2="1975.7228" gradientTransform="matrix(-1 0 0 1 -1165.4333 0)">
					<stop  offset="0" style="stop-color:#FEBBBA"/>
					<stop  offset="1" style="stop-color:#FF928E"/>
				</linearGradient>
				<path style="fill:url(#SVGID_00000150070628999801924660000011641649964053530017_);" d="M689.02,2527.68
					c0,0-132.46,251.26-153.52,308.63c-21.06,57.37-28.43,105.23-28.71,109.76c-0.44,7.08-9.25,13.87-33.53,13.87
					c-12.53,0-18.67-5.02-21.67-9.88c-2.56-4.15-2.7-9.34-0.54-13.71c7.66-15.51,31.98-65.06,40.98-87.54
					c10.75-26.84,33.88-148.45,46.56-190.73c12.68-42.28,27.02-88.15,82.26-130.4C620.86,2527.68,658.78,2490.54,689.02,2527.68z"/>
				
					<linearGradient id="SVGID_00000053522294710973179700000002148863677357268894_" gradientUnits="userSpaceOnUse" x1="1163.9341" y1="970.8232" x2="998.6136" y2="1451.7554">
					<stop  offset="0" style="stop-color:#FF928E"/>
					<stop  offset="1" style="stop-color:#FE7062"/>
				</linearGradient>
				<path style="fill:url(#SVGID_00000053522294710973179700000002148863677357268894_);" d="M772.69,2115.97
					c34.17-144.79-52.39-226.68-52.39-226.68c54.62-52.43,154.13-76.28,154.13-76.28s94.96,69.42,83.69,123.76
					c-6.6,31.85-66.75,190.76-66.75,190.76S835.77,2153.86,772.69,2115.97z"/>
				
					<linearGradient id="SVGID_00000017480857634513813080000006138564650862076333_" gradientUnits="userSpaceOnUse" x1="1036.2299" y1="1864.1011" x2="525.238" y2="2810.9373">
					<stop  offset="0" style="stop-color:#09005D"/>
					<stop  offset="1" style="stop-color:#1A0F91"/>
				</linearGradient>
				<path style="fill:url(#SVGID_00000017480857634513813080000006138564650862076333_);" d="M696.94,2187.65
					c13.91-41.89,75.76-71.68,75.76-71.68c63.07,37.88,118.69,11.56,118.69,11.56s12.47,47.67,3.86,91.98
					c-8.61,44.3-62.62,329.03-62.62,329.03c-85.1,17.24-215.98-17.35-215.98-17.35C670.86,2434.95,683.03,2229.55,696.94,2187.65z"
					/>
				
					<linearGradient id="SVGID_00000139254422161157967410000013730365053517553313_" gradientUnits="userSpaceOnUse" x1="-2016.1302" y1="1975.3113" x2="-1995.2826" y2="1822.7953" gradientTransform="matrix(-1 0 0 1 -1165.4333 0)">
					<stop  offset="0" style="stop-color:#FEBBBA"/>
					<stop  offset="1" style="stop-color:#FF928E"/>
				</linearGradient>
				<path style="fill:url(#SVGID_00000139254422161157967410000013730365053517553313_);" d="M812.36,1717.34l-27.78,124.78
					c-2.66,10.99,7.36,9.19,18.47,7.1c18.2-3.43,41.65-10.5,49.49-24.66c0.8-1.44,1.2-3.07,1.42-4.7l11.93-86.53
					c0.95-6.86-2.76-13.53-9.1-16.34l-23.03-10.21C824.9,1702.85,814.64,1707.91,812.36,1717.34z"/>
				
					<linearGradient id="SVGID_00000135678120529264936330000016051373029562458291_" gradientUnits="userSpaceOnUse" x1="419.2117" y1="2120.248" x2="889.9019" y2="1923.3406">
					<stop  offset="0" style="stop-color:#FEBBBA"/>
					<stop  offset="1" style="stop-color:#FF928E"/>
				</linearGradient>
				<path style="fill:url(#SVGID_00000135678120529264936330000016051373029562458291_);" d="M720.3,1889.3
					c0,0-268.14,265.43,120.73,159.48c0,0,4.43-33.55-1.35-32.97c-126.1,12.58-178.84,41.45-76.34-57.95
					c3.62-3.51,2.5-16.78,0.17-21.26C756.42,1922.96,740.18,1895.89,720.3,1889.3z"/>
				<g>
					
						<linearGradient id="SVGID_00000002346305460988332450000013426566044101995681_" gradientUnits="userSpaceOnUse" x1="-2156.8962" y1="1500.4519" x2="-1974.9919" y2="1176.7235" gradientTransform="matrix(-0.9809 -0.1943 -0.1943 0.9809 -936.3432 -99.2406)">
						<stop  offset="0" style="stop-color:#FEBBBA"/>
						<stop  offset="1" style="stop-color:#FF928E"/>
					</linearGradient>
					<path style="fill:url(#SVGID_00000002346305460988332450000013426566044101995681_);" d="M865.56,1603.58
						c0,0,29.57,20.02,42.28,71c12.71,50.98-7.94,69.27-29.11,68.15c-21.17-1.12-51.86-7.67-78.46-44.24
						S826.81,1579.12,865.56,1603.58z"/>
					
						<linearGradient id="SVGID_00000033366260593699098220000017040820898961816452_" gradientUnits="userSpaceOnUse" x1="-2117.7761" y1="1218.536" x2="-2026.8241" y2="1446.687" gradientTransform="matrix(-0.9809 -0.1943 -0.1943 0.9809 -936.3432 -99.2406)">
						<stop  offset="0" style="stop-color:#09005D"/>
						<stop  offset="1" style="stop-color:#1A0F91"/>
					</linearGradient>
					<path style="fill:url(#SVGID_00000033366260593699098220000017040820898961816452_);" d="M827.09,1677.93
						c0,0-10.84-73.05,49.82-61.88l12.26,12.77c0,0,29.69-33.43-3.17-58.71c-32.85-25.27-78.45-18.8-103.67,27.21
						c-25.22,46.01-34.38,78.34-13.24,106.93c21.14,28.59,37.04,4.07,37.04,4.07s-9.7-24.74-1.65-35.36
						c8.04-10.62,18.42,6.18,18.42,6.18L827.09,1677.93z"/>
					
						<linearGradient id="SVGID_00000098187288503761626530000009916559510473412279_" gradientUnits="userSpaceOnUse" x1="-2118.1763" y1="1522.2115" x2="-1936.2722" y2="1198.4834" gradientTransform="matrix(-0.9809 -0.1943 -0.1943 0.9809 -936.3432 -99.2406)">
						<stop  offset="0" style="stop-color:#FEBBBA"/>
						<stop  offset="1" style="stop-color:#FF928E"/>
					</linearGradient>
					<path style="fill:url(#SVGID_00000098187288503761626530000009916559510473412279_);" d="M818.8,1684.19
						c0,0-5.35-37.59-24.55-26.84c-19.2,10.74,6.92,35.11,17.39,43.4L818.8,1684.19z"/>
				</g>
				<g>
					
						<linearGradient id="SVGID_00000048463240376318443860000012114384177756181935_" gradientUnits="userSpaceOnUse" x1="-2336.9897" y1="1335.5607" x2="-2168.9705" y2="1717.842" gradientTransform="matrix(-0.9776 -0.2106 -0.2106 0.9776 -915.0133 -113.5247)">
						<stop  offset="0" style="stop-color:#FEBBBA"/>
						<stop  offset="1" style="stop-color:#FF928E"/>
					</linearGradient>
					<path style="fill:url(#SVGID_00000048463240376318443860000012114384177756181935_);" d="M1159.11,1606.07
						c0.41,4.42-16.01,7.47-21.24-11.36c1.44-8.17,3.99-43.97,10.26-49.53c33.38-29.62,92.9-62.93,92.9-62.93
						c6.66,10.16-2.07,16.86-2.07,16.86l-29.71,20.05c3.1,10.27,7.62,19.34,8.13,31.06c0.39,8.87-2.89,17.56-8.78,24.3
						c-5.91,6.76-13.87,15.48-21.05,22.1C1173.96,1609.15,1159.11,1606.07,1159.11,1606.07z"/>
					
						<linearGradient id="SVGID_00000091737274534789472520000016589810827402986408_" gradientUnits="userSpaceOnUse" x1="1155.9124" y1="1560.9095" x2="1201.1553" y2="1560.9095">
						<stop  offset="0" style="stop-color:#FEBBBA"/>
						<stop  offset="1" style="stop-color:#FF928E"/>
					</linearGradient>
					<path style="fill:url(#SVGID_00000091737274534789472520000016589810827402986408_);" d="M1175.25,1591.48l-4.54-1.87
						c0.6-1.47,14.86-36.12,21.76-43.32c2.62-2.73,3.89-5.08,3.77-6.96c-0.06-1.02-0.56-2.03-1.52-3.06l-24.04,12.86l-10.62,16.63
						l-4.14-2.65l11.31-17.71l28.16-15.06l1.27,1.03c2.85,2.33,4.32,4.83,4.49,7.65c0.21,3.36-1.47,6.85-5.12,10.66
						C1190.82,1555.12,1179.26,1581.69,1175.25,1591.48z"/>
				</g>
			</g>
			<g>
				
					<linearGradient id="SVGID_00000147922175322015621750000012556230697326269322_" gradientUnits="userSpaceOnUse" x1="1152.812" y1="1166.9336" x2="1199.5717" y2="953.1754">
					<stop  offset="0" style="stop-color:#09005D"/>
					<stop  offset="1" style="stop-color:#1A0F91"/>
				</linearGradient>
				<path style="fill:url(#SVGID_00000147922175322015621750000012556230697326269322_);" d="M825.35,2103.53l64.89-226.62
					c0.74-2.57,2.93-4.45,5.59-4.76c11.76-1.37,45.83-5.22,85.16-8.55c47.38-4.01,102.4-7.26,135.28-4.49
					c4.67,0.39,7.5,5.34,5.42,9.54c-18.7,37.83-95.61,191.7-134.12,242.11c-1.28,1.67-3.25,2.65-5.35,2.63l-150.56-1.4
					C827.29,2111.94,824.15,2107.74,825.35,2103.53z"/>
				<path class="st29" d="M987.73,1843.95l47.05-7.84c2.51-0.42,4.56,1.98,3.76,4.39l-4.66,14.11c-0.41,1.23-1.48,2.12-2.76,2.29
					l-45.27,6.05c-2.34,0.31-4.27-1.82-3.73-4.12l2.88-12.32C985.3,1845.19,986.38,1844.18,987.73,1843.95z"/>
				<path class="st4" d="M952.5,1883.78l3.88-20.19c0.39-2.02,2.06-3.55,4.11-3.76l95.03-9.64c3.2-0.32,5.76,2.61,5.01,5.73
					l-6.04,25.16c-0.48,2.01-2.24,3.47-4.3,3.57l-92.86,4.67C954.29,1889.48,951.93,1886.76,952.5,1883.78z"/>
				
					<linearGradient id="SVGID_00000142872735523586267240000008752094811813188503_" gradientUnits="userSpaceOnUse" x1="834.7719" y1="2010.3551" x2="921.2248" y2="2010.3551">
					<stop  offset="0" style="stop-color:#FEBBBA"/>
					<stop  offset="1" style="stop-color:#FF928E"/>
				</linearGradient>
				<path style="fill:url(#SVGID_00000142872735523586267240000008752094811813188503_);" d="M841.03,2048.78
					c0,0-9.04-37.17-5.39-50.36c3.65-13.19,10.71-30.14,34.26-26.37c23.55,3.77,51.33,13.69,51.33,13.69s-1.4,17.18-19.3,11.64
					l11.1,8.59c0,0-1.59,13.75-16.7,6.41l10.32,11.39c0,0-6.49,11.3-17.61,4.05C877.9,2020.56,872.57,2053.25,841.03,2048.78z"/>
			</g>
		</g>
	</g>
</g>
</svg>
